<?xml version="1.0" standalone="no"?>
<!DOCTYPE svg PUBLIC "-//W3C//DTD SVG 20010904//EN"
 "http://www.w3.org/TR/2001/REC-SVG-20010904/DTD/svg10.dtd">
<svg version="1.0" xmlns="http://www.w3.org/2000/svg"
 width="3929.000000pt" height="3085.000000pt" viewBox="0 0 3929.000000 3085.000000"
 preserveAspectRatio="xMidYMid meet">
<metadata>
Created by potrace 1.13, written by Peter Selinger 2001-2015
</metadata>
<g transform="translate(0.000000,3085.000000) scale(0.100000,-0.100000)"
fill="#000000" stroke="none">
<path d="M20022 30836 c-122 -40 -201 -148 -202 -277 -1 -164 126 -292 290
-292 260 0 388 314 203 499 -70 70 -197 101 -291 70z"/>
<path d="M19170 30818 c-64 -43 -74 -128 -24 -188 60 -70 179 -54 214 30 48
117 -86 229 -190 158z"/>
<path d="M19492 30774 c-113 -58 -123 -229 -17 -294 78 -48 180 -31 233 38 23
30 27 45 27 103 0 73 -14 103 -68 143 -37 27 -130 33 -175 10z"/>
<path d="M18720 30753 c-63 -23 -151 -113 -173 -177 -39 -114 -14 -229 67
-312 196 -200 533 -52 513 226 -8 118 -89 228 -194 264 -58 20 -154 19 -213
-1z"/>
<path d="M20571 30682 c-50 -25 -74 -63 -74 -116 0 -137 180 -185 245 -65 35
66 12 146 -53 181 -42 23 -74 23 -118 0z"/>
<path d="M18280 30498 c-154 -78 -84 -315 86 -295 156 17 193 233 51 297 -55
25 -83 25 -137 -2z"/>
<path d="M20843 30465 c-104 -45 -94 -207 15 -245 152 -53 245 174 99 243 -42
20 -71 21 -114 2z"/>
<path d="M21554 30407 c-108 -52 -168 -145 -168 -262 0 -92 29 -160 96 -220
112 -101 274 -100 387 1 68 62 94 120 95 214 1 90 -22 148 -81 207 -58 58
-105 77 -198 81 -68 2 -88 -1 -131 -21z"/>
<path d="M20475 30370 c-46 -10 -72 -27 -101 -66 -61 -80 -34 -204 56 -251 55
-29 105 -29 161 0 119 63 119 241 -1 302 -35 17 -80 23 -115 15z"/>
<path d="M18268 30177 c-61 -18 -111 -52 -146 -102 -39 -54 -52 -97 -52 -169
0 -236 291 -359 460 -194 107 103 113 270 16 385 -58 68 -186 105 -278 80z"/>
<path d="M20950 30137 c-121 -35 -218 -115 -272 -225 -28 -56 -33 -78 -36
-157 -4 -76 0 -105 17 -156 101 -304 513 -382 715 -136 90 110 120 267 76 396
-57 170 -199 279 -373 287 -49 2 -100 -1 -127 -9z"/>
<path d="M17860 30107 c-110 -39 -105 -207 8 -247 37 -13 47 -13 84 0 76 27
111 117 74 189 -29 55 -102 81 -166 58z"/>
<path d="M17710 29783 c-63 -23 -151 -113 -173 -177 -40 -117 -14 -231 72
-316 88 -88 200 -112 314 -70 155 58 234 230 177 385 -29 77 -105 155 -175
178 -60 21 -155 21 -215 0z"/>
<path d="M21488 29474 c-46 -25 -72 -93 -57 -148 5 -19 26 -49 46 -66 33 -30
41 -32 90 -28 44 4 60 11 86 37 29 28 32 37 32 92 0 57 -2 62 -37 95 -32 29
-45 34 -85 34 -27 -1 -60 -7 -75 -16z"/>
<path d="M18211 29355 c-127 -40 -181 -199 -105 -307 112 -158 364 -82 365
110 1 143 -127 240 -260 197z"/>
<path d="M20820 29225 c-194 -88 -153 -376 56 -393 94 -8 184 45 215 127 32
83 -2 191 -77 244 -51 36 -140 46 -194 22z"/>
<path d="M17470 29127 c-94 -50 -109 -179 -28 -254 98 -90 258 -16 258 119 0
62 -28 109 -80 136 -56 28 -96 28 -150 -1z"/>
<path d="M21330 29059 c-184 -83 -228 -322 -85 -465 65 -65 129 -89 224 -82
77 6 131 30 183 85 107 110 105 294 -3 402 -78 79 -219 105 -319 60z"/>
<path d="M17878 28945 c-172 -47 -297 -185 -328 -364 -31 -172 73 -381 229
-460 228 -116 506 -24 612 202 118 255 -21 550 -294 623 -64 17 -156 17 -219
-1z"/>
<path d="M20867 28728 c-78 -21 -136 -113 -122 -192 33 -173 268 -195 330 -31
50 129 -72 259 -208 223z"/>
<path d="M21511 28442 c-136 -74 -50 -278 98 -233 71 21 107 97 80 168 -27 71
-112 102 -178 65z"/>
<path d="M20933 28336 c-104 -34 -186 -106 -231 -205 -23 -47 -27 -70 -26
-146 0 -121 25 -186 104 -265 99 -99 234 -132 366 -91 326 101 355 547 46 689
-69 31 -192 40 -259 18z"/>
<path d="M18503 28264 c-60 -22 -128 -86 -159 -150 -74 -152 7 -346 168 -400
73 -24 169 -15 238 22 199 108 198 400 -1 509 -65 35 -178 44 -246 19z"/>
<path d="M17788 27969 c-20 -6 -55 -26 -77 -46 -78 -66 -89 -187 -25 -271 78
-102 251 -96 322 11 23 34 27 51 27 112 0 61 -4 77 -28 113 -45 68 -139 103
-219 81z"/>
<path d="M20520 27813 c-111 -56 -71 -213 54 -213 53 0 106 52 106 104 0 93
-81 148 -160 109z"/>
<path d="M18195 27732 c-39 -24 -54 -43 -65 -83 -13 -46 4 -102 40 -133 87
-73 220 -12 220 101 0 97 -114 164 -195 115z"/>
<path d="M18810 27688 c-13 -7 -35 -29 -48 -48 -42 -61 -15 -147 55 -177 47
-19 95 -10 136 27 29 25 32 34 32 84 0 49 -4 59 -31 87 -36 36 -103 48 -144
27z"/>
<path d="M20714 27599 c-42 -12 -101 -79 -110 -123 -14 -76 23 -157 86 -188
81 -41 176 -15 228 62 32 47 28 139 -7 189 -42 58 -121 82 -197 60z"/>
<path d="M20122 27542 c-74 -27 -122 -69 -159 -141 -54 -103 -44 -214 26 -307
74 -98 210 -137 326 -94 233 87 252 417 30 525 -72 36 -153 42 -223 17z"/>
<path d="M18450 27541 c-169 -52 -260 -229 -203 -397 23 -67 110 -154 177
-177 194 -66 389 62 403 263 10 130 -69 253 -190 299 -58 21 -139 26 -187 12z"/>
<path d="M19055 27462 c-75 -36 -125 -112 -125 -190 0 -55 43 -134 91 -168 72
-49 182 -44 250 13 100 84 90 252 -18 327 -56 39 -139 46 -198 18z"/>
<path d="M19730 27373 c-73 -27 -74 -141 -2 -160 78 -21 135 45 106 122 -12
30 -69 51 -104 38z"/>
<path d="M19483 27195 c-42 -18 -66 -58 -66 -108 0 -53 15 -83 56 -107 38 -24
75 -25 122 -6 87 37 86 179 -1 221 -39 18 -69 19 -111 0z"/>
<path d="M18225 26966 c-116 -51 -99 -217 24 -233 83 -11 141 37 141 117 0 56
-26 95 -76 116 -40 17 -51 17 -89 0z"/>
<path d="M18085 26615 c-163 -59 -140 -297 31 -330 110 -20 219 90 198 200
-19 104 -129 167 -229 130z"/>
<path d="M17580 26406 c-155 -45 -262 -164 -292 -325 -22 -119 20 -256 106
-344 263 -271 716 -72 694 304 -12 207 -174 366 -381 375 -49 2 -100 -2 -127
-10z"/>
<path d="M18235 25897 c-134 -45 -209 -144 -209 -277 0 -240 273 -373 465
-227 131 101 144 307 28 427 -72 74 -193 107 -284 77z"/>
<path d="M20327 25776 c-60 -22 -107 -65 -133 -120 -75 -161 35 -337 210 -337
71 0 129 25 175 77 129 147 38 376 -156 390 -35 3 -72 -1 -96 -10z"/>
<path d="M20899 25767 c-22 -15 -39 -38 -49 -65 -49 -142 152 -241 235 -115
40 60 16 156 -46 189 -42 21 -101 18 -140 -9z"/>
<path d="M18783 25749 c-17 -5 -43 -23 -57 -39 -73 -87 -12 -220 101 -220 74
0 138 71 129 143 -10 88 -89 141 -173 116z"/>
<path d="M19496 25709 c-63 -15 -153 -69 -197 -116 -22 -24 -55 -74 -72 -111
-29 -61 -32 -75 -32 -168 0 -96 2 -103 38 -176 55 -112 141 -182 262 -214 195
-53 413 64 480 256 71 203 -34 434 -232 510 -65 26 -185 35 -247 19z"/>
<path d="M21543 25671 c-194 -71 -308 -278 -259 -470 22 -86 60 -152 118 -207
200 -187 523 -125 641 123 29 63 32 76 32 168 -1 80 -5 111 -24 158 -32 80
-115 168 -199 209 -58 29 -76 33 -161 35 -75 2 -108 -2 -148 -16z"/>
<path d="M17791 25550 c-18 -4 -45 -17 -60 -27 -33 -24 -71 -98 -71 -138 0
-17 10 -51 23 -75 70 -140 268 -126 312 22 17 58 8 112 -26 159 -33 47 -115
74 -178 59z"/>
<path d="M18703 25434 c-60 -22 -128 -86 -160 -152 -36 -74 -39 -182 -6 -253
27 -60 92 -125 152 -152 66 -31 177 -30 249 2 65 29 134 104 156 168 51 151
-11 304 -154 378 -48 25 -180 30 -237 9z"/>
<path d="M20781 25415 c-139 -39 -221 -147 -221 -291 0 -171 131 -299 305
-298 151 2 276 121 292 279 20 196 -182 363 -376 310z"/>
<path d="M20124 25291 c-28 -17 -64 -81 -64 -113 0 -32 43 -97 74 -112 118
-56 239 61 181 174 -35 68 -124 92 -191 51z"/>
<path d="M22250 25235 c-152 -69 -162 -293 -17 -368 143 -74 307 27 307 188 0
52 -44 131 -90 161 -52 35 -145 43 -200 19z"/>
<path d="M21897 24850 c-173 -44 -281 -227 -232 -395 41 -144 160 -235 305
-235 283 0 424 345 222 543 -26 25 -68 55 -94 67 -54 24 -148 33 -201 20z"/>
<path d="M22390 24787 c-69 -24 -102 -122 -64 -187 48 -81 178 -80 220 2 57
110 -41 225 -156 185z"/>
<path d="M17915 24422 c-221 -106 -94 -437 142 -371 157 43 190 257 56 352
-54 38 -140 46 -198 19z"/>
<path d="M22337 24326 c-120 -45 -197 -154 -197 -280 0 -83 26 -144 89 -207
89 -88 198 -112 315 -69 110 42 176 136 184 261 4 66 1 84 -20 130 -34 73 -66
110 -129 144 -64 34 -179 45 -242 21z"/>
<path d="M17505 24066 c-114 -28 -223 -116 -270 -219 -94 -205 -9 -440 194
-540 61 -30 73 -32 166 -32 128 1 191 24 275 102 166 153 177 409 26 571 -100
106 -251 152 -391 118z"/>
<path d="M22053 23751 c-108 -37 -178 -110 -210 -220 -41 -143 36 -303 177
-370 78 -36 182 -36 261 1 267 123 240 509 -41 592 -69 21 -122 20 -187 -3z"/>
<path d="M17945 23331 c-131 -34 -207 -162 -170 -288 67 -230 386 -225 446 7
25 99 -27 212 -121 260 -43 22 -114 32 -155 21z"/>
<path d="M17353 23210 c-280 -57 -331 -441 -75 -567 73 -36 181 -38 254 -5
143 64 214 236 158 385 -48 129 -201 214 -337 187z"/>
<path d="M21983 23076 c-66 -30 -92 -119 -53 -183 63 -103 213 -73 235 48 16
93 -94 174 -182 135z"/>
<path d="M21530 23027 c-101 -28 -167 -94 -196 -195 -63 -217 165 -414 373
-322 184 81 222 323 70 456 -68 60 -165 84 -247 61z"/>
<path d="M18151 22864 c-155 -42 -290 -164 -344 -312 -31 -88 -35 -232 -8
-321 42 -138 156 -262 290 -317 88 -36 230 -44 317 -19 261 75 417 327 363
587 -38 182 -185 334 -370 383 -68 19 -178 18 -248 -1z"/>
<path d="M21095 22656 c-63 -29 -115 -111 -115 -178 1 -68 60 -153 123 -177
16 -6 48 -11 72 -11 24 0 56 5 72 11 64 24 122 109 123 180 0 50 -43 129 -86
159 -44 30 -142 38 -189 16z"/>
<path d="M17503 22540 c-111 -67 -61 -240 69 -240 60 0 128 69 128 130 0 40
-34 93 -71 112 -44 23 -86 23 -126 -2z"/>
<path d="M20195 22450 c-85 -35 -104 -155 -34 -214 41 -35 75 -42 123 -25 71
25 107 112 73 179 -27 54 -106 84 -162 60z"/>
<path d="M19137 22440 c-89 -23 -168 -84 -209 -163 -15 -29 -23 -66 -26 -123
-4 -72 -1 -89 20 -136 34 -73 79 -122 143 -153 207 -102 445 46 445 276 0 156
-124 289 -281 303 -30 3 -71 1 -92 -4z"/>
<path d="M20515 22312 c-111 -52 -154 -180 -98 -289 60 -116 241 -139 329 -41
43 46 56 87 52 154 -3 50 -10 72 -33 105 -55 78 -167 110 -250 71z"/>
<path d="M19815 22271 c-104 -28 -180 -94 -215 -187 -74 -197 69 -405 279
-406 264 -2 397 305 220 506 -59 68 -198 110 -284 87z"/>
<path d="M20924 22251 c-47 -28 -64 -59 -64 -112 0 -120 147 -170 225 -78 33
40 35 114 4 153 -44 56 -110 70 -165 37z"/>
<path d="M18703 22015 c-60 -26 -87 -102 -60 -167 40 -97 179 -101 229 -7 10
18 18 45 18 59 0 39 -33 92 -71 112 -40 21 -72 22 -116 3z"/>
<path d="M2115 15814 c-347 -49 -590 -150 -817 -341 -274 -231 -456 -591 -507
-1003 -14 -108 -14 -370 -1 -480 46 -380 192 -706 420 -940 298 -305 739 -450
1220 -400 345 36 618 156 855 375 l70 64 -57 56 c-31 30 -63 55 -71 55 -8 0
-34 -16 -58 -35 -290 -234 -454 -302 -783 -325 -707 -51 -1220 353 -1354 1065
-13 68 -17 147 -17 325 0 204 3 250 22 345 87 428 320 749 671 924 317 159
787 172 1125 31 42 -17 124 -64 182 -103 195 -132 196 -132 259 -41 l39 57
-44 38 c-67 59 -206 152 -284 192 -195 98 -379 138 -650 142 -104 2 -203 1
-220 -1z"/>
<path d="M5540 15810 c-572 -79 -994 -429 -1176 -975 -80 -242 -110 -527 -83
-801 63 -646 417 -1128 962 -1309 206 -68 424 -94 641 -76 385 32 689 171 931
422 215 225 350 515 399 859 69 489 -26 951 -267 1303 -195 285 -495 478 -866
558 -109 23 -428 34 -541 19z m479 -205 c440 -84 753 -366 900 -812 55 -167
73 -276 78 -500 7 -263 -14 -436 -78 -626 -144 -434 -450 -712 -884 -802 -110
-23 -339 -31 -459 -16 -222 28 -445 119 -603 246 -228 183 -383 462 -444 801
-31 170 -31 497 -1 665 110 605 491 988 1054 1059 100 12 335 4 437 -15z"/>
<path d="M34560 15805 c-323 -49 -599 -191 -816 -418 -246 -257 -388 -606
-413 -1019 -26 -433 65 -811 271 -1120 67 -100 218 -260 308 -325 384 -279
923 -356 1400 -201 635 206 1008 813 977 1593 -18 452 -169 829 -441 1100
-198 197 -427 317 -715 376 -130 27 -437 34 -571 14z m528 -205 c517 -105 857
-488 948 -1067 26 -166 23 -461 -5 -628 -120 -694 -595 -1088 -1281 -1062
-346 14 -606 122 -821 344 -174 179 -278 385 -341 673 -20 94 -22 132 -23 365
0 232 2 272 23 372 85 420 300 727 627 895 141 72 281 112 460 132 89 9 313
-3 413 -24z"/>
<path d="M8378 15784 c-5 -4 -8 -704 -8 -1556 l0 -1548 100 0 100 0 -2 1380
c-2 758 0 1376 3 1372 4 -4 286 -493 629 -1087 342 -594 633 -1090 647 -1102
19 -18 36 -23 79 -23 44 0 59 5 77 23 12 12 297 510 632 1106 l610 1083 3
-1376 2 -1376 100 0 100 0 -2 1553 -3 1552 -102 0 c-78 0 -106 -4 -117 -15
-20 -21 -1254 -2204 -1279 -2263 -22 -53 -26 -52 -50 10 -18 45 -1281 2229
-1303 2253 -15 16 -203 28 -216 14z"/>
<path d="M12778 15784 c-5 -4 -8 -704 -8 -1556 l0 -1548 100 0 100 0 -2 1380
c-2 758 0 1376 3 1372 4 -4 287 -493 629 -1087 342 -594 633 -1090 647 -1102
19 -18 36 -23 79 -23 44 0 59 5 77 23 12 12 297 510 632 1105 l610 1084 3
-1376 2 -1376 100 0 100 0 -2 1553 -3 1552 -102 0 c-78 0 -106 -4 -117 -15
-19 -20 -1252 -2201 -1280 -2264 l-22 -50 -20 50 c-23 54 -1287 2240 -1310
2264 -15 16 -203 28 -216 14z"/>
<path d="M17144 15776 c-3 -7 -3 -474 -1 -1037 3 -918 5 -1034 21 -1119 109
-603 556 -981 1156 -980 383 1 698 143 915 412 79 99 172 282 210 413 55 189
55 196 55 1302 l0 1021 -110 1 -109 1 -4 -1047 c-3 -1043 -3 -1048 -26 -1147
-90 -398 -355 -671 -720 -740 -117 -22 -312 -21 -428 3 -396 82 -668 402 -723
851 -6 53 -10 458 -10 1082 l0 998 -110 0 c-84 0 -112 -3 -116 -14z"/>
<path d="M20800 14236 l0 -1556 100 0 100 0 -2 1365 c-2 1025 0 1361 8 1352 7
-7 458 -608 1004 -1337 545 -729 1003 -1337 1018 -1352 23 -26 32 -28 99 -28
l73 0 0 1555 0 1556 -97 -3 -98 -3 0 -1362 c0 -992 -3 -1359 -11 -1350 -6 7
-462 616 -1013 1354 -551 739 -1007 1346 -1014 1350 -6 3 -46 9 -89 11 l-78 5
0 -1557z"/>
<path d="M24610 14235 l0 -1555 115 0 115 0 0 1555 0 1555 -115 0 -115 0 0
-1555z"/>
<path d="M25867 15783 c-4 -3 -7 -46 -7 -95 l0 -88 550 0 550 0 0 -1460 0
-1460 115 0 115 0 0 1460 0 1460 545 0 545 0 0 95 0 95 -1203 0 c-662 0 -1207
-3 -1210 -7z"/>
<path d="M28820 15786 c0 -3 259 -416 575 -919 l575 -914 0 -637 0 -636 110 0
110 0 0 638 0 638 566 900 c311 494 570 907 576 917 9 18 4 19 -106 15 -108
-3 -117 -5 -140 -28 -39 -40 -946 -1506 -975 -1576 -14 -35 -28 -64 -31 -64
-3 0 -17 29 -31 64 -28 68 -936 1534 -976 1576 -22 23 -31 25 -138 28 -63 2
-115 1 -115 -2z"/>
<path d="M37430 14235 l0 -1555 110 0 110 0 0 715 0 715 710 0 710 0 0 90 0
90 -710 0 -710 0 0 655 0 655 820 0 820 0 0 95 0 95 -930 0 -930 0 0 -1555z"/>
<path d="M13055 11240 c-232 -20 -480 -78 -686 -160 -581 -230 -1129 -780
-1511 -1516 -33 -63 -62 -113 -64 -111 -3 2 -27 294 -54 648 -31 404 -55 666
-65 704 -40 152 -102 232 -206 270 -50 18 -89 19 -546 23 l-493 3 0 -4081 0
-4080 715 0 715 0 0 2596 0 2596 46 107 c337 775 785 1273 1326 1475 272 101
596 142 945 117 202 -14 305 -32 453 -76 250 -75 360 -86 444 -46 56 27 101
80 121 141 19 60 197 1089 191 1106 -7 18 -209 116 -331 160 -137 49 -300 90
-436 109 -138 19 -427 27 -564 15z"/>
<path d="M18965 11244 c-517 -31 -898 -102 -1307 -243 -554 -192 -1086 -520
-1582 -976 l-79 -73 137 -246 c153 -273 189 -324 277 -390 141 -106 351 -116
531 -25 32 16 140 84 240 152 429 289 676 419 997 528 342 116 888 150 1246
78 668 -135 1051 -599 1171 -1419 13 -92 18 -217 21 -616 l5 -500 -404 -12
c-959 -29 -1604 -115 -2290 -306 -830 -232 -1403 -532 -1798 -943 -147 -152
-232 -271 -323 -453 -188 -374 -238 -699 -181 -1180 60 -505 286 -956 635
-1266 451 -401 1123 -589 1919 -535 775 52 1375 279 1990 750 122 94 346 278
485 400 59 51 71 58 77 43 4 -9 39 -170 78 -357 90 -431 97 -459 127 -520 45
-91 103 -134 229 -171 51 -15 116 -18 462 -21 l402 -4 -3 2813 -3 2813 -22
155 c-64 449 -157 769 -317 1095 -139 283 -285 485 -501 695 -199 192 -393
327 -649 451 -300 145 -614 232 -970 269 -106 11 -499 20 -600 14z m1655
-5493 l0 -848 -128 -124 c-315 -306 -576 -502 -879 -657 -429 -220 -848 -312
-1352 -299 -205 5 -290 16 -447 56 -370 95 -651 357 -767 716 -48 145 -61 244
-61 440 1 163 3 190 27 279 136 506 611 845 1497 1066 561 140 1155 206 1968
218 l142 2 0 -849z"/>
<path d="M3200 11229 c-259 -18 -536 -66 -780 -133 -394 -108 -802 -311 -1090
-543 -115 -92 -280 -258 -372 -373 -225 -282 -399 -650 -472 -995 -45 -217
-59 -383 -53 -645 6 -243 18 -356 63 -554 140 -625 541 -1169 1126 -1526 49
-29 88 -54 88 -56 0 -2 -33 -20 -72 -41 -182 -95 -348 -224 -518 -399 -236
-245 -373 -493 -426 -771 -13 -70 -15 -123 -11 -253 6 -181 24 -275 77 -422
83 -229 306 -462 581 -607 90 -48 92 -50 67 -60 -635 -241 -1108 -638 -1291
-1081 -81 -195 -112 -365 -112 -610 0 -152 4 -205 23 -297 47 -232 153 -480
290 -673 75 -106 249 -291 362 -385 508 -421 1281 -693 2220 -781 232 -21 829
-30 1060 -15 680 44 1251 190 1805 462 929 455 1521 1223 1616 2094 16 149 6
415 -21 575 -138 799 -775 1278 -1920 1444 -304 44 -388 48 -1315 56 -946 8
-1012 11 -1312 60 -521 85 -814 262 -878 531 -32 139 -15 281 52 413 49 99 85
148 172 239 80 84 261 227 287 227 9 0 50 -9 92 -20 116 -29 329 -67 492 -86
108 -13 224 -18 455 -18 338 -1 438 4 650 35 704 101 1293 377 1726 809 379
379 611 839 696 1380 14 92 18 174 18 410 -1 259 -3 311 -23 425 -41 235 -108
454 -196 641 l-44 93 26 5 c15 3 225 33 467 66 244 34 469 70 505 81 122 38
195 96 239 189 26 55 26 56 29 358 l4 302 -1112 0 -1112 0 -71 42 c-304 177
-770 326 -1202 382 -268 35 -609 45 -885 25z m695 -1044 c411 -54 728 -197
964 -435 302 -303 441 -674 441 -1175 0 -456 -117 -807 -364 -1097 -234 -274
-578 -449 -1031 -525 -157 -26 -602 -26 -760 0 -475 79 -841 281 -1079 597
-226 300 -325 644 -313 1085 9 334 76 595 212 824 266 446 696 688 1320 741
140 12 467 4 610 -15z m-1472 -6589 c295 -67 433 -76 1132 -76 597 0 822 -8
1085 -35 293 -31 575 -89 781 -161 336 -117 548 -310 618 -564 58 -207 28
-501 -73 -713 -250 -525 -885 -871 -1788 -972 -321 -36 -865 -36 -1188 0 -763
85 -1318 341 -1571 724 -101 154 -148 305 -156 503 -9 217 23 370 112 548 129
256 400 502 783 711 70 38 132 67 138 65 7 -3 64 -16 127 -30z"/>
<path d="M27530 11220 c-678 -55 -1226 -227 -1742 -546 -355 -219 -667 -509
-926 -859 -410 -555 -682 -1298 -776 -2120 -55 -474 -45 -1081 25 -1559 144
-991 575 -1864 1199 -2433 554 -505 1249 -801 2025 -864 188 -15 680 -6 855
15 524 65 979 188 1384 375 282 131 582 335 815 557 99 94 271 282 271 296 0
15 -427 563 -464 596 -50 43 -129 65 -225 61 -65 -3 -89 -10 -152 -41 -40 -21
-101 -61 -134 -89 -184 -160 -433 -325 -637 -423 -268 -129 -455 -188 -708
-223 -192 -26 -655 -26 -820 1 -947 150 -1583 788 -1861 1864 -153 595 -178
1404 -64 2088 44 261 108 500 192 714 293 744 808 1222 1508 1400 242 62 366
75 690 75 425 0 624 -36 975 -176 207 -82 424 -198 610 -327 52 -36 124 -79
160 -96 59 -28 74 -31 165 -31 119 0 155 15 234 97 70 74 444 587 438 602 -16
41 -355 322 -530 439 -502 335 -1010 519 -1632 592 -162 19 -709 28 -875 15z"/>
<path d="M35450 11219 c-686 -54 -1294 -261 -1830 -623 -754 -510 -1272 -1305
-1504 -2306 -160 -694 -161 -1571 -1 -2356 128 -630 388 -1228 734 -1689 592
-788 1445 -1260 2516 -1391 177 -21 684 -30 885 -15 1105 84 2079 471 2670
1063 142 142 167 174 153 198 -41 64 -422 546 -456 575 -50 43 -119 65 -202
65 -106 0 -205 -39 -368 -144 -391 -253 -925 -485 -1307 -570 -337 -75 -817
-92 -1174 -41 -801 112 -1397 537 -1762 1257 -232 458 -351 953 -383 1588 -5
96 -7 178 -4 183 2 4 1242 7 2755 7 3040 0 2821 -5 2902 62 46 38 69 83 92
183 16 69 19 121 18 385 -1 597 -86 1074 -281 1570 -459 1170 -1471 1898
-2782 2000 -154 11 -516 11 -671 -1z m690 -1060 c549 -63 1019 -327 1325 -744
263 -358 411 -820 432 -1342 l6 -163 -2222 0 -2221 0 6 43 c31 218 111 539
180 724 262 700 712 1165 1329 1371 334 112 787 155 1165 111z"/>
</g>
</svg>
